# xmcd
#
# Track frame offsets:
#	150
#	11116
#	21046
#	30030
#	45101
#	53896
#	66269
#	78153
#	87754
#	98001
#	114197
#	128098
#	137831
#	150692
#	160275
#	175063
#	188866
#	201174
#	215545
#	229485
#	244977
#	258013
#	271037
#	280463
#
# Disc length: 3860 seconds
#
# Revision: 2
# Processed by: cddbd v1.5.2PL0 Copyright (c) Steve Scherf et al.
# Submitted via: EasyCDDAExtractor 6.2.0.3
#
DISCID=380f1218
DTITLE=Various Artist - Les Introuvables - Volume 15
DYEAR=2007
DGENRE=Chanson
TTITLE0=Les Loups - Acapulco
TTITLE1=Les Megatones - Le bricoleur
TTITLE2=Le 25e Regiment - Respectachim
TTITLE3=Les Revoltes - Le bon temps (Remix Stereo)
TTITLE4=Les Habits Jaunes - Laisse les filles
TTITLE5=Les Pharaons - Le jerk (Instrumental)
TTITLE6=Gil Patrick et Les Mustangs - Toi qui recherche l'amour (Remix Stereo)
TTITLE7=Les Vampires - Viens a moi
TTITLE8=Lynn and The Showgirls - You're Understanding
TTITLE9=Les Lutins - Loin de moi
TTITLE10=Les 409 - Donne-moi ton amour
TTITLE11=Les Delinquants - Aie aie
TTITLE12=Brown-Martin - Le gout de toi
TTITLE13=Les Baladins - Neuf filles sur dix
TTITLE14=Les Skyliners - Le p'tit voisin (Instrumental)
TTITLE15=Les Associes - Cornelia
TTITLE16=Les Intrigantes - Sans toi
TTITLE17=Les Viscounts - Reve d'amour
TTITLE18=Francois et Liette - Vivre avec toi
TTITLE19=Bruce et la 7e Invention - Dis-lui je serai la
TTITLE20=L'Entracte - Ma vie commence aujourd'hui
TTITLE21=Les Valentins - Lucie
TTITLE22=Le Spectre - Je veux etre seul
TTITLE23=Les Mersey's - Goodbye Sunshine
EXTD=Etiquette MERITE, no 22-6045\nCollection de chansons rares des groupes de
EXTD=s annees 60
EXTT0=
EXTT1=
EXTT2=
EXTT3=
EXTT4=
EXTT5=
EXTT6=
EXTT7=
EXTT8=
EXTT9=
EXTT10=
EXTT11=
EXTT12=
EXTT13=
EXTT14=
EXTT15=
EXTT16=
EXTT17=
EXTT18=
EXTT19=
EXTT20=
EXTT21=
EXTT22=
EXTT23=
PLAYORDER=
